# generated from PmQm by Jehee Lee
:FULLY-SPECIFIED
:DEGREES
290
root 166.4425626 21.9326 -41.97177878 12.09287001 38.22884806 33.9551253
RightUpLeg 26.50441474 1.320294348 -22.39178704
RightLeg 88.28108855 0 0
RightFoot -22.32779676 12.13582899 -22.63283533
RightToes -4.65663e-010 -1.59028e-015 9.93923e-017
Spine 68.2548 -14.7587 11.6777
Spine1 13.3114 -6.23779 -15.9845
HEad -66.5309 -22.0859 17.9169
LeftShoulder1 9.93923e-017 0 1.22299e-017
LeftArm 38.1015 -12.1881 -79.0752
LeftForeArm -28.9784 -38.2309 23.6849
LeftHand 0.204401 3.45451 8.41525
RightShoulder 1.98785e-016 -4.96962e-017 1.55301e-017
RightArm -16.6095 24.148 61.9351
RightForeArm 4.08787 -2.56994 -3.36504
RightHand 8.22072 -20.9425 -43.7781
LeftUpLeg -76.10304001 -13.93801009 -19.86426371
LeftLeg 97.82011344 0 0
LeftFoot -14.91240278 -8.011509099 -0.1825717192
LeftToes 3.34876e-009 -9.68256e-011 -6.12847e-011
291
root 166.7098922 22.0002 -42.03817005 10.77710432 36.10773591 32.13543416
RightUpLeg 25.94467143 3.825473731 -22.53867443
RightLeg 87.80626163 0 0
RightFoot -22.79369455 14.6540312 -21.48251081
RightToes -4.65663e-010 -1.59028e-015 9.93923e-017
Spine 68.5608 -14.1851 12.3487
Spine1 12.7045 -5.03725 -16.2939
HEad -66.7406 -21.6995 17.3853
LeftShoulder1 9.93923e-017 0 1.22299e-017
LeftArm 36.6435 -6.89353 -80.133
LeftForeArm -30.1092 -38.4793 23.7445
LeftHand 0.30131 3.72674 7.17869
RightShoulder 1.98785e-016 -4.96962e-017 1.55301e-017
RightArm -16.5835 22.8458 61.1152
RightForeArm 4.79653 -2.99882 -2.72129
RightHand 8.37954 -21.155 -44.0466
LeftUpLeg -75.86593266 -13.96128409 -19.31014303
LeftLeg 96.30672534 0 0
LeftFoot -13.16847072 -5.353111163 2.638000348
LeftToes 3.34876e-009 -9.68256e-011 -6.12847e-011
292
root 166.9841688 22.1463 -42.12614631 9.992359621 34.23469176 31.41101752
RightUpLeg 25.64196648 6.006503943 -24.15922739
RightLeg 86.97222591 0 0
RightFoot -23.1387714 18.08796905 -20.45765659
RightToes -4.65663e-010 -1.59028e-015 9.93923e-017
Spine 69.0435 -13.8602 12.9477
Spine1 11.8028 -4.04755 -16.673
HEad -66.6937 -21.7875 17.1109
LeftShoulder1 9.93923e-017 0 1.22299e-017
LeftArm 37.3305 -2.28179 -82.1107
LeftForeArm -31.1312 -37.6038 23.2193
LeftHand 0.363606 3.75046 5.3217
RightShoulder 1.98785e-016 -4.96962e-017 1.55301e-017
RightArm -16.9325 21.1366 59.6568
RightForeArm 5.37234 -3.01463 -2.26083
RightHand 8.26699 -21.149 -43.3888
LeftUpLeg -75.92556964 -14.633083 -18.66797888
LeftLeg 95.9158219 0 0
LeftFoot -12.4744498 -2.832500639 3.864255794
LeftToes 3.34876e-009 -9.68256e-011 -6.12847e-011
293
root 167.2933086 22.4034 -42.21285866 9.457622395 32.47603272 30.72590298
RightUpLeg 25.03261893 7.733823652 -26.24896545
RightLeg 85.84220617 0 0
RightFoot -23.71301179 21.45935549 -20.78935852
RightToes -4.65663e-010 -1.59028e-015 9.93923e-017
Spine 68.9324 -13.7082 13.9837
Spine1 11.0092 -2.92809 -17.0659
HEad -66.9135 -22.3679 16.7359
LeftShoulder1 9.93923e-017 0 1.22299e-017
LeftArm 40.5954 1.33313 -84.5852
LeftForeArm -32.9079 -36.0711 22.335
LeftHand 0.412896 3.65796 3.20786
RightShoulder 1.98785e-016 -4.96962e-017 1.55301e-017
RightArm -16.7507 19.5402 57.6542
RightForeArm 5.58054 -2.7099 -1.6615
RightHand 7.98557 -20.9333 -42.3611
LeftUpLeg -75.99317467 -15.17195283 -18.04962159
LeftLeg 95.43855432 0 0
LeftFoot -12.50499721 -0.765450942 3.858458693
LeftToes 3.34876e-009 -9.68256e-011 -6.12847e-011
294
root 167.6087268 22.7961 -42.26293748 8.394462485 30.42738937 28.91370288
RightUpLeg 24.06143592 9.533490873 -26.84227543
RightLeg 84.33452669 0 0
RightFoot -24.23667251 23.67110255 -21.44906069
RightToes -4.65663e-010 -1.59028e-015 9.93923e-017
Spine 68.8697 -13.2753 14.9126
Spine1 10.2995 -1.53645 -17.0187
HEad -67.7007 -22.3034 16.4051
LeftShoulder1 9.93923e-017 0 1.22299e-017
LeftArm 44.352 4.5188 -86.4776
LeftForeArm -35.0362 -34.9411 21.6631
LeftHand 0.496728 3.76777 1.02372
RightShoulder 1.98785e-016 -4.96962e-017 1.55301e-017
RightArm -15.5148 18.6821 56.3141
RightForeArm 5.8375 -2.20278 -0.712549
RightHand 7.74008 -20.747 -41.4379
LeftUpLeg -75.53707955 -14.53339768 -16.93027461
LeftLeg 94.59693042 0 0
LeftFoot -12.80011435 0.5204800218 4.167195669
LeftToes 3.34876e-009 -9.68256e-011 -6.12847e-011
295
root 167.8936584 23.3369 -42.21903758 6.997112185 28.21365785 26.26849333
RightUpLeg 23.22406712 11.5312184 -25.34030532
RightLeg 81.99746509 0 0
RightFoot -23.67104651 24.81111643 -20.68981315
RightToes -4.65663e-010 -1.59028e-015 9.93923e-017
Spine 69.0683 -12.3459 14.8019
Spine1 9.76745 -0.458359 -16.3941
HEad -68.5093 -20.8384 16.4507
LeftShoulder1 9.93923e-017 0 1.22299e-017
LeftArm 46.7767 7.70445 -87.0748
LeftForeArm -36.6551 -34.1339 21.1915
LeftHand 0.576709 3.92648 -0.9377
RightShoulder 1.98785e-016 -4.96962e-017 1.55301e-017
RightArm -13.8919 18.6479 56.5921
RightForeArm 6.0771 -1.63238 0.364811
RightHand 6.92882 -20.1266 -38.1609
LeftUpLeg -74.59937162 -13.02338071 -15.1986955
LeftLeg 93.6824624 0 0
LeftFoot -13.18162958 1.290491331 4.975752696
LeftToes 3.34876e-009 -9.68256e-011 -6.12847e-011
296
root 168.1486375 24.0792 -42.00446362 6.254414406 26.10030495 24.0015864
RightUpLeg 22.67138609 13.36423021 -23.13495081
RightLeg 78.34070167 0 0
RightFoot -22.02118851 25.68457517 -19.06455849
RightToes -4.65663e-010 -1.59028e-015 9.93923e-017
Spine 68.8741 -11.0849 13.4027
Spine1 9.47015 -0.185271 -15.627
HEad -68.5576 -18.9498 16.6025
LeftShoulder1 9.93923e-017 0 1.22299e-017
LeftArm 49.3812 10.2952 -86.8092
LeftForeArm -38.8927 -32.4676 20.3115
LeftHand 0.614184 3.80999 -2.70217
RightShoulder 1.98785e-016 -4.96962e-017 1.55301e-017
RightArm -12.7919 18.9294 57.8917
RightForeArm 5.22299 -1.1539 1.32031
RightHand 5.02181 -18.2019 -29.9219
LeftUpLeg -73.35951906 -11.66547005 -13.49063403
LeftLeg 92.44913303 0 0
LeftFoot -13.70277116 1.918364704 5.25620764
LeftToes 3.34876e-009 -9.68256e-011 -6.12847e-011
297
root 168.3855244 25.0798 -41.58509469 6.554079702 23.72534156 22.35796976
RightUpLeg 21.59282664 14.99213979 -21.62725958
RightLeg 73.63659945 0 0
RightFoot -19.68602513 26.97806559 -17.99193545
RightToes -4.65663e-010 -1.59028e-015 9.93923e-017
Spine 67.9965 -9.60383 11.3162
Spine1 8.97952 -0.240378 -15.2266
HEad -67.9853 -18.1142 16.2051
LeftShoulder1 9.93923e-017 0 1.22299e-017
LeftArm 55.069 11.3676 -86.5412
LeftForeArm -43.555 -29.623 18.8642
LeftHand 0.656008 3.59623 -4.83145
RightShoulder 1.98785e-016 -4.96962e-017 1.55301e-017
RightArm -12.2667 19.0014 59.1455
RightForeArm 2.64484 -0.866448 2.23889
RightHand 3.0362 -15.4044 -19.3451
LeftUpLeg -71.83063495 -10.45225531 -12.05957627
LeftLeg 90.33817332 0 0
LeftFoot -14.32378897 2.339163622 4.668147499
LeftToes 3.34876e-009 -9.68256e-011 -6.12847e-011
298
root 168.6072603 26.2884 -41.02306451 7.80502492 20.76561789 20.81442573
RightUpLeg 18.70820401 16.40596432 -21.34583787
RightLeg 69.21009042 0 0
RightFoot -14.74606968 29.4201088 -16.24380837
RightToes -4.65663e-010 -1.59028e-015 9.93923e-017
Spine 66.4745 -7.93316 9.21529
Spine1 7.84779 -0.0579494 -15.3919
HEad -67.4795 -18.1994 15.2671
LeftShoulder1 9.93923e-017 0 1.22299e-017
LeftArm 64.2013 10.9756 -86.5538
LeftForeArm -50.3584 -26.7496 17.536
LeftHand 0.72815 3.64298 -7.05912
RightShoulder 1.98785e-016 -4.96962e-017 1.55301e-017
RightArm -11.8245 18.5527 60.4812
RightForeArm 1.035 0.801689 2.36838
RightHand 2.01883 -13.3521 -12.4627
LeftUpLeg -70.35806114 -9.009709061 -10.6348186
LeftLeg 87.24998468 0 0
LeftFoot -14.81508385 2.583512486 3.755989729
LeftToes 3.34876e-009 -9.68256e-011 -6.12847e-011
299
root 168.7918155 27.58 -40.4386025 8.747765217 17.71269622 18.62337461
RightUpLeg 14.54496324 17.62565133 -21.0416811
RightLeg 66.2660154 0 0
RightFoot -3.95575384 32.20749688 -11.01200792
RightToes -4.65663e-010 -1.59028e-015 9.93923e-017
Spine 65.429 -6.2691 7.39006
Spine1 6.00576 0.424037 -15.9327
HEad -67.0582 -17.7915 14.5256
LeftShoulder1 9.93923e-017 0 1.22299e-017
LeftArm 67.0998 9.51414 -86.5746
LeftForeArm -50.0849 -25.1214 13.6666
LeftHand 0.783575 3.93918 -8.18646
RightShoulder 1.98785e-016 -4.96962e-017 1.55301e-017
RightArm -11.1885 17.2234 62.5961
RightForeArm 1.83081 1.54662 3.13201
RightHand 1.82849 -12.7747 -11.2983
LeftUpLeg -68.57636326 -7.574755302 -8.5259452
LeftLeg 83.76615289 0 0
LeftFoot -15.23610234 3.02708193 2.754176606
LeftToes 3.34876e-009 -9.68256e-011 -6.12847e-011
